<svg viewBox="0 0 1000 887" xmlns="http://www.w3.org/2000/svg" style="background-color:var(--b)" stroke-width="0"><style>:root{--f:#ff00ff;--b:#00ff00}</style><g fill-rule="evenodd"><path d="m1e3 866h-1e3l500-866 500 866z" fill="var(--f)"/><path d="m500 866 250-433h-500l250 433z" fill="var(--b)"/><path d="m875 866 62-108h-125l62 108z" fill="var(--f)"/><path d="m625 866 62-108h-125l62 108z" fill="var(--f)"/><path d="m375 866 62-108h-125l62 108z" fill="var(--f)"/><path d="m125 866 62-108h-125l62 108z" fill="var(--f)"/><path d="m750 649 62-108h-125l62 108z" fill="var(--f)"/><path d="m250 649 62-108h-125l62 108z" fill="var(--f)"/><path d="m375 433 62-108h-125l62 108z" fill="var(--f)"/><path d="m500 433 125-216h-250l125 216z" fill="var(--b)"/><path d="m750 866 125-216h-250l125 216z" fill="var(--b)"/><path d="m250 866 125-216h-250l125 216z" fill="var(--b)"/><path d="m875 866 62-108h-125l62 108z" fill="var(--b)"/><path d="m625 866 62-108h-125l62 108z" fill="var(--b)"/><path d="m375 866 62-108h-125l62 108z" fill="var(--b)"/><path d="m125 866 62-108h-125l62 108z" fill="var(--b)"/><path d="m750 649 62-108h-125l62 108z" fill="var(--b)"/><path d="m250 649 62-108h-125l62 108z" fill="var(--b)"/><path d="m625 433 62-108h-125l62 108z" fill="var(--b)"/><path d="m375 433 62-108h-125l62 108z" fill="var(--b)"/><path d="m500 216 62-108h-125l62 108z" fill="var(--b)"/><path d="m937 866 31-54h-62l31 54z" fill="var(--b)"/><path d="m812 866 31-54h-62l31 54z" fill="var(--b)"/><path d="m687 866 31-54h-62l31 54z" fill="var(--b)"/><path d="m562 866 31-54h-62l31 54z" fill="var(--b)"/><path d="m437 866 31-54h-62l31 54z" fill="var(--b)"/><path d="m312 866 31-54h-62l31 54z" fill="var(--b)"/><path d="m187 866 31-54h-62l31 54z" fill="var(--b)"/><path d="m62 866 31-54h-62l31 54z" fill="var(--b)"/><path d="m874 757 31-54h-62l31 54z" fill="var(--b)"/><path d="m624 757 31-54h-62l31 54z" fill="var(--b)"/><path d="m375 757 31-54h-62l31 54z" fill="var(--b)"/><path d="m124 757 31-54h-62l31 54z" fill="var(--b)"/><path d="m187 649 31-54h-62l31 54z" fill="var(--b)"/><path d="m312 649 31-54h-62l31 54z" fill="var(--b)"/><path d="m687 649 31-54h-62l31 54z" fill="var(--b)"/><path d="m812 649 31-54h-62l31 54z" fill="var(--b)"/><path d="m749 541 31-54h-62l31 54z" fill="var(--b)"/><path d="m249 541 31-54h-62l31 54z" fill="var(--b)"/><path d="m312 432 31-54h-62l31 54z" fill="var(--b)"/><path d="m437 432 31-54h-62l31 54z" fill="var(--b)"/><path d="m562 432 31-54h-62l31 54z" fill="var(--b)"/><path d="m687 432 31-54h-62l31 54z" fill="var(--b)"/><path d="m624 324 31-54h-62l31 54z" fill="var(--b)"/><path d="m374 324 31-54h-62l31 54z" fill="var(--b)"/><path d="m437 216 31-54h-62l31 54z" fill="var(--b)"/><path d="m562 216 31-54h-62l31 54z" fill="var(--b)"/><path d="m499 108 31-54h-62l31 54z" fill="var(--b)"/></g></svg>
